<svg width="61" height="80" viewBox="0 0 61 80" fill="none" xmlns="http://www.w3.org/2000/svg">
<path fill-rule="evenodd" clip-rule="evenodd" d="M0 34.5521C0 62.0573 0.0295722 69.1267 0.144962 69.2148C0.230779 69.2804 2.40509 69.3371 5.47086 69.3537L10.6518 69.3816L10.7873 69.1286C10.8679 68.978 10.9003 68.5975 10.8676 68.1879C10.7884 67.1964 10.8913 67.1141 12.5665 66.8287C14.1116 66.5655 14.6495 66.2898 15.1793 65.4891L15.4819 65.0316L15.4981 38.9434C15.5124 15.81 15.5342 12.8138 15.6913 12.4883C15.7887 12.2866 16.0086 11.7821 16.18 11.3674C16.3514 10.9527 16.6167 10.3553 16.7695 10.0398C16.9224 9.72413 17.0475 9.36699 17.0475 9.246C17.0475 9.12514 17.1519 8.89338 17.2795 8.73122C17.407 8.56895 17.5116 8.37802 17.5118 8.30692C17.5123 8.15253 18.1046 6.69854 18.3678 6.20568C18.4701 6.01429 18.554 5.79947 18.5544 5.72837C18.5548 5.65726 18.6621 5.46297 18.7929 5.29675C18.9236 5.13053 19.1527 4.64069 19.302 4.20815C19.4512 3.77572 19.6571 3.26523 19.7595 3.07384C19.8618 2.88245 19.9774 2.55813 20.0162 2.35306C20.1162 1.82656 20.3855 1.62183 20.5971 1.91147C20.686 2.03291 20.7589 2.21363 20.7594 2.31304C20.7597 2.41256 20.8637 2.65046 20.9905 2.84186C21.1172 3.03325 21.2213 3.29574 21.2216 3.42519C21.2225 3.70717 21.768 4.99992 22.1256 5.56772C22.2662 5.791 22.3814 6.03227 22.3817 6.10396C22.3821 6.23468 22.6774 6.95814 23.0891 7.83726C23.2105 8.09662 23.3099 8.37315 23.3099 8.45179C23.3099 8.53044 23.5447 9.09405 23.8317 9.7043C24.1188 10.3145 24.3536 10.883 24.3536 10.9678C24.3536 11.0525 24.4111 11.1572 24.4814 11.2007C24.6686 11.3164 24.9496 12.0294 25.0957 12.7593C25.1857 13.2091 25.2062 16.5466 25.1654 24.0688C25.1335 29.9381 25.1245 35.458 25.1453 36.3351C25.1893 38.1807 25.2574 38.2659 26.0406 37.456C26.62 36.8569 27.6802 36.1463 29.6174 35.0586C29.9292 34.8835 30.2945 34.6757 30.4291 34.597C30.5638 34.5181 30.7743 34.4529 30.8967 34.452C31.0193 34.4511 31.202 34.3767 31.3026 34.2868C31.4034 34.1968 31.6945 34.0918 31.9496 34.0534C32.2048 34.015 32.6856 33.8746 33.0182 33.7412C33.5664 33.5214 33.8046 33.5028 35.5695 33.5425C37.0744 33.5763 37.6082 33.6299 37.9221 33.779C38.1453 33.8849 38.5628 34.0342 38.8498 34.1106C41.1527 34.7238 43.1387 36.3756 44.2616 38.612C44.5378 39.162 44.7638 39.6793 44.764 39.7616C44.7641 39.8439 44.8654 40.1094 44.9889 40.3517C45.3269 41.0143 45.6649 42.4762 45.8081 43.8956C45.8785 44.593 45.9633 45.2074 45.9963 45.261C46.0295 45.3147 46.052 49.2853 46.0463 54.0847C46.0367 62.2178 46.0514 62.9042 46.2621 64.185C46.5124 65.7057 46.5715 65.8114 47.508 66.4123C48.0101 66.7345 48.2517 66.8073 49.0111 66.8651C50.2886 66.9623 50.4025 67.0614 50.4714 68.1347C50.5022 68.615 50.5939 69.0883 50.6752 69.1863C50.804 69.3414 51.4491 69.3642 55.6506 69.3628C58.3058 69.362 60.5956 69.3298 60.7391 69.2914L61 69.2214V34.6107V0H30.5H0V34.5521ZM17.4814 13.4936L17.1615 13.7556L17.1914 39.8144C17.2113 56.9939 17.261 65.9118 17.3375 65.9866C17.5584 66.2029 18.0281 66.2468 18.2652 66.0731C18.496 65.9042 18.4971 65.7695 18.4971 39.7886V13.6741L18.2072 13.4513C17.8498 13.1766 17.87 13.1754 17.4814 13.4936ZM29.9202 36.983C29.1864 37.171 27.8997 37.8597 27.5942 38.2281C27.5107 38.3286 27.2348 38.5169 26.9811 38.6463C26.7275 38.7758 26.2225 39.1895 25.8589 39.5658C25.4953 39.9421 25.155 40.2499 25.1024 40.2499C24.917 40.2499 22.846 42.4995 22.846 42.7009C22.846 42.7565 22.7764 42.8018 22.6914 42.8018C22.5286 42.8018 21.8023 43.6381 21.8023 43.8256C21.8023 43.8858 21.6718 44.0206 21.5124 44.1251C21.1937 44.334 21.1226 44.6577 21.3955 44.6577C21.4906 44.6577 21.6335 44.5533 21.7132 44.4257C21.7929 44.2981 21.9159 44.1937 21.9868 44.1937C22.0575 44.1937 22.3316 44.0372 22.5956 43.8458C22.8598 43.6544 23.1221 43.4978 23.1787 43.4978C23.2352 43.4978 23.3422 43.4246 23.4165 43.3352C23.4906 43.2457 23.6786 43.1406 23.8342 43.1015C23.9897 43.0626 24.3712 42.8806 24.682 42.6973L25.2472 42.3641L25.3182 43.7139C25.3573 44.4562 25.3402 45.6901 25.2801 46.4556C25.1423 48.2122 25.1398 61.261 25.2768 63.7361L25.3794 65.5894L25.9476 66.1316C26.4718 66.6318 26.5751 66.6801 27.2818 66.7558C28.3709 66.8724 28.5865 67.1214 28.5865 68.2623C28.5865 68.7302 28.63 69.1566 28.6831 69.2097C28.7362 69.263 29.4659 69.3215 30.3048 69.3401C31.6235 69.3692 31.8493 69.3474 31.9722 69.1791C32.0509 69.0717 32.076 68.9006 32.0287 68.7975C31.9814 68.6946 31.9443 68.3518 31.9461 68.0357C31.9493 67.5133 31.9856 67.4366 32.3437 67.1948C32.5604 67.0484 32.8752 66.9286 33.0432 66.9286C33.4916 66.9286 34.4902 66.6497 34.7307 66.4574C35.4141 65.9109 35.682 65.5355 35.8159 64.9371C35.9208 64.4681 35.954 61.7536 35.9464 54.2798C35.9378 45.8951 35.9081 44.1282 35.7654 43.4978C35.6714 43.0831 35.5471 42.3683 35.489 41.9095C35.4309 41.4505 35.3023 40.9181 35.2031 40.7262C35.104 40.5344 35.0228 40.2916 35.0228 40.1866C35.0228 39.9782 34.4048 38.7945 34.1426 38.5009C34.0527 38.4002 33.9791 38.2393 33.9791 38.1434C33.9791 37.8801 33.194 37.3127 32.4322 37.0254C31.6403 36.7269 30.9646 36.7155 29.9202 36.983Z" fill="#CD3202"/>
<path fill-rule="evenodd" clip-rule="evenodd" d="M15.7716 69.6087C15.1117 70.2677 15.9416 71.348 16.6843 70.7967C17.0843 70.4998 17.1493 69.9423 16.8222 69.6155C16.5194 69.3131 16.0705 69.3102 15.7716 69.6087ZM17.9682 69.6155C17.641 69.9423 17.7061 70.4998 18.1061 70.7967C18.6252 71.182 19.2507 70.8167 19.2507 70.1282C19.2507 69.4479 18.4546 69.1297 17.9682 69.6155ZM42.6697 69.6155C42.3426 69.9423 42.4076 70.4998 42.8076 70.7967C43.3267 71.182 43.9522 70.8167 43.9522 70.1282C43.9522 69.4479 43.1561 69.1297 42.6697 69.6155ZM44.8913 69.6545C44.5518 70.0155 44.6045 70.495 45.0175 70.8016C45.2944 71.0071 45.3697 71.016 45.6941 70.8819C46.1237 70.7041 46.3117 70.3084 46.1583 69.9053C45.9445 69.3437 45.3031 69.2167 44.8913 69.6545ZM16.3668 71.7026C14.0597 72.1554 12.6577 74.5089 13.2672 76.9059C13.6889 78.5646 14.8588 79.616 16.6242 79.923C18.6218 80.2704 20.4699 79.3301 21.3021 77.543C21.5847 76.936 21.6256 76.7087 21.6256 75.7476C21.6256 74.7989 21.5832 74.5563 21.3173 73.9875C20.4793 72.1949 18.5037 71.2831 16.3668 71.7026ZM0.414339 71.7953C0.37978 71.8512 0.51674 71.9301 0.718875 71.9704C1.52254 72.131 1.50735 72.0583 1.50735 75.7397C1.50735 79.4742 1.48833 79.57 0.746939 79.57C0.527293 79.57 0.347656 79.6221 0.347656 79.6858C0.347656 79.7589 1.1424 79.8016 2.49994 79.8016C3.90525 79.8016 4.6274 79.7614 4.58055 79.6858C4.54112 79.6221 4.36345 79.57 4.18579 79.57C3.56836 79.57 3.47883 79.3157 3.47883 77.5628V75.9793H4.87047H6.2621V77.5829C6.2621 78.9894 6.23601 79.2101 6.05 79.3783C5.93333 79.4837 5.70162 79.57 5.53498 79.57C5.36844 79.57 5.19982 79.6221 5.16039 79.6858C5.11354 79.7614 5.83568 79.8016 7.241 79.8016C8.59854 79.8016 9.39328 79.7589 9.39328 79.6858C9.39328 79.6221 9.23672 79.57 9.04537 79.57C8.85205 79.57 8.59437 79.467 8.46553 79.3383C8.24426 79.1173 8.23359 78.9523 8.23359 75.7558C8.23359 72.0463 8.21898 72.1195 8.99006 71.9751C9.87456 71.8093 9.15833 71.6936 7.24785 71.6936C5.33736 71.6936 4.62114 71.8093 5.50564 71.9751C6.21247 72.1075 6.2621 72.2339 6.2621 73.9026V75.4001H4.87047H3.47883V73.9446C3.47883 73.1441 3.53033 72.3931 3.5933 72.2755C3.66068 72.1499 3.89934 72.0296 4.17361 71.9833C4.4299 71.9401 4.61012 71.8573 4.57417 71.7991C4.49032 71.6637 0.498069 71.66 0.414339 71.7953ZM25.0492 71.8119C25.0492 71.877 25.1776 71.9886 25.3343 72.06C25.6506 72.2039 25.6789 72.2661 27.6082 77.0519C28.2696 78.693 28.8597 80.0195 28.9194 79.9996C28.979 79.9798 29.5025 78.8339 30.0827 77.4532C30.6629 76.0726 31.167 74.9416 31.203 74.9399C31.2389 74.9382 31.6003 75.8098 32.0058 76.877C33.0112 79.5216 33.2684 80.0949 33.3924 79.9669C33.4495 79.9079 34.0788 78.3312 34.7907 76.4632C36.4363 72.1451 36.3637 72.3111 36.7047 72.088C36.8638 71.9839 36.994 71.8525 36.994 71.7961C36.994 71.7397 36.5201 71.6936 35.9407 71.6936C35.1495 71.6936 34.8993 71.7296 34.9356 71.8384C34.962 71.9181 35.0838 72.0018 35.2061 72.0246C35.529 72.0848 35.7184 72.2694 35.7184 72.524C35.7184 72.7746 34.1889 76.9061 34.0962 76.9056C33.9905 76.9049 32.3429 72.4808 32.3788 72.2942C32.3979 72.1949 32.5831 72.0698 32.7904 72.0162C33.6263 71.7998 33.1203 71.6936 31.2535 71.6936C30.0799 71.6936 29.34 71.7375 29.34 71.8072C29.34 71.8697 29.4667 71.9526 29.6214 71.9914C30.0251 72.0926 30.2159 72.3466 30.6165 73.3173L30.9713 74.1764L30.3645 75.6572C30.0309 76.4716 29.7195 77.0988 29.6727 77.0508C29.4968 76.8713 27.8184 72.489 27.8542 72.3031C27.8748 72.1964 28.018 72.0794 28.1724 72.0429C28.3267 72.0066 28.4743 71.9131 28.5003 71.8351C28.5361 71.7278 28.1252 71.6936 26.7983 71.6936C25.685 71.6936 25.0492 71.7366 25.0492 71.8119ZM40.2412 71.8123C40.2412 71.8777 40.3966 71.9621 40.5865 72.0001C41.2094 72.1245 41.2223 72.187 41.2849 75.3975L41.3429 78.3715L41.6624 78.8532C41.8679 79.1633 42.1986 79.4466 42.5902 79.6483C43.1198 79.9211 43.3333 79.9614 44.2421 79.96C45.3866 79.9584 45.844 79.8187 46.4922 79.2729C47.2569 78.6289 47.3473 78.2223 47.4059 75.1685C47.4626 72.2045 47.4809 72.125 48.1392 71.9805C48.8598 71.8224 48.415 71.6936 47.1482 71.6936C45.8295 71.6936 45.306 71.8424 46.101 71.9914C46.8425 72.1304 46.8716 72.2626 46.8302 75.3048C46.7965 77.7834 46.7739 78.0396 46.5553 78.4113C46.1873 79.0369 45.654 79.3383 44.915 79.3383C44.1649 79.3383 43.671 79.1081 43.4323 78.6472C43.1967 78.1921 43.1688 72.3734 43.4014 72.1815C43.4811 72.1157 43.7416 72.0253 43.9802 71.9809C44.8981 71.8095 44.2054 71.6936 42.2638 71.6936C40.9599 71.6936 40.2412 71.7358 40.2412 71.8123ZM52.0179 71.8001C51.9817 71.8585 52.1222 71.9425 52.33 71.9867C53.1346 72.1575 53.1138 72.0575 53.1138 75.7656C53.1138 78.9523 53.1031 79.1173 52.8819 79.3383C52.753 79.467 52.4953 79.57 52.302 79.57C52.1107 79.57 51.9541 79.6221 51.9541 79.6858C51.9541 79.7588 52.7273 79.8016 54.0416 79.8016C55.3559 79.8016 56.129 79.7588 56.129 79.6858C56.129 79.6221 55.9824 79.57 55.8033 79.57C55.6241 79.57 55.3763 79.4961 55.2524 79.4057C55.0491 79.2574 55.0273 79.0922 55.0273 77.6973C55.0273 76.2299 55.0391 76.1513 55.2645 76.1191C55.4532 76.0921 55.7707 76.4652 56.8178 77.9434L58.1339 79.8016H59.3929C60.6424 79.8016 60.9236 79.7152 60.3568 79.5055C60.1696 79.4362 59.6213 78.7829 58.8571 77.7188L57.6524 76.0412L58.222 75.7709C59.0628 75.3718 59.3182 74.9482 59.3182 73.9523C59.3182 72.1276 58.3064 71.6964 54.0194 71.6945C52.9548 71.694 52.0542 71.7414 52.0179 71.8001ZM18.1838 72.2038C18.6373 72.4395 18.9706 72.8372 19.2124 73.431C19.3875 73.861 19.4247 74.2768 19.4247 75.8055C19.4247 77.5634 19.409 77.6922 19.1206 78.3064C18.6028 79.4092 17.6797 79.8091 16.6756 79.3653C15.6596 78.9165 15.2594 77.7568 15.3266 75.4569C15.3685 74.0284 15.3949 73.8787 15.7186 73.2466C16.1465 72.4109 16.6501 72.0411 17.3602 72.0411C17.6409 72.0411 18.0114 72.1143 18.1838 72.2038ZM56.4729 72.3082C56.7054 72.3882 56.9906 72.6173 57.1497 72.8519C57.39 73.2064 57.4192 73.3642 57.3828 74.1091C57.3444 74.8921 57.3118 74.987 56.9794 75.2835C56.7054 75.5281 56.4482 75.6258 55.9159 75.6875C55.5296 75.7323 55.1587 75.735 55.0914 75.6935C54.9569 75.6105 54.9148 72.3658 55.0467 72.2342C55.1691 72.1119 56.0323 72.1567 56.4729 72.3082Z" fill="#10181F"/>
</svg>
