<?xml version="1.0" encoding="UTF-8" standalone="no"?>
<svg
   viewBox="0 0 272.98 28.35"
   version="1.1"
   id="svg40"
   sodipodi:docname="logo_oneline_white.svg"
   inkscape:version="1.2 (dc2aeda, 2022-05-15)"
   xmlns:inkscape="http://www.inkscape.org/namespaces/inkscape"
   xmlns:sodipodi="http://sodipodi.sourceforge.net/DTD/sodipodi-0.dtd"
   xmlns="http://www.w3.org/2000/svg"
   xmlns:svg="http://www.w3.org/2000/svg">
  <sodipodi:namedview
     id="namedview42"
     pagecolor="#ffffff"
     bordercolor="#666666"
     borderopacity="1.0"
     inkscape:showpageshadow="2"
     inkscape:pageopacity="0.0"
     inkscape:pagecheckerboard="0"
     inkscape:deskcolor="#d1d1d1"
     showgrid="false"
     inkscape:zoom="1.7215628"
     inkscape:cx="163.80465"
     inkscape:cy="15.683424"
     inkscape:window-width="1309"
     inkscape:window-height="456"
     inkscape:window-x="0"
     inkscape:window-y="25"
     inkscape:window-maximized="0"
     inkscape:current-layer="Layer_1-2" />
  <defs
     id="defs4">
    <style
       id="style2">.cls-1{fill:#231f20;}</style>
  </defs>
  <g
     id="Layer_2"
     data-name="Layer 2">
    <g
       id="Layer_1-2"
       data-name="Layer 1">
      <path
         class="cls-1"
         d="M16.37,10l7.7,13.35H8.66L16.37,10m0-10L0,28.35H32.73L16.37,0Z"
         id="path6"
         style="fill:#ffffff" />
      <path
         class="cls-1"
         d="M86.59,5a9.18,9.18,0,1,1-9.17,9.17A9.18,9.18,0,0,1,86.59,5m0-5a14.18,14.18,0,1,0,14.17,14.17A14.17,14.17,0,0,0,86.59,0Z"
         id="path8"
         style="fill:#ffffff" />
      <path
         class="cls-1"
         d="M60.75,5V23.35H42.4V5H60.75m5-5H37.4V28.35H65.75V0Z"
         id="path10"
         style="fill:#ffffff" />
      <path
         class="cls-1"
         d="M112.1,3.75h4.72v7.56a5.85,5.85,0,0,1,4.55-2c3.92,0,6.61,2.57,6.61,7.24v7.88h-4.75V17c0-2.19-1.16-3.63-3.07-3.6-2.1,0-3.34,1.68-3.34,3.83v7.24H112.1Z"
         id="path12"
         style="fill:#ffffff" />
      <path
         class="cls-1"
         d="M132.47,3.57a2.58,2.58,0,0,1,2.72,2.16,2.51,2.51,0,0,1-2.72,2.18,2.46,2.46,0,0,1-2.71-2.18A2.49,2.49,0,0,1,132.47,3.57Zm2.36,6.09V24.42h-4.72V9.66Z"
         id="path14"
         style="fill:#ffffff" />
      <path
         class="cls-1"
         d="M142.75,24.42H138V3.75h4.73Z"
         id="path16"
         style="fill:#ffffff" />
      <path
         class="cls-1"
         d="M150.31,24.42h-4.73V3.75h4.73Z"
         id="path18"
         style="fill:#ffffff" />
      <path
         class="cls-1"
         d="M155.86,3.57a2.58,2.58,0,0,1,2.72,2.16,2.51,2.51,0,0,1-2.72,2.18,2.47,2.47,0,0,1-2.72-2.18A2.49,2.49,0,0,1,155.86,3.57Zm2.36,6.09V24.42H153.5V9.66Z"
         id="path20"
         style="fill:#ffffff" />
      <path
         class="cls-1"
         d="M166.46,13.35V9.66h2V5.88h4.72V9.66h3.4v3.69h-3.4v5.78c0,1.3.33,2,1.42,2a5.84,5.84,0,0,0,1.8-.32l.89,3.33a10.26,10.26,0,0,1-3.75.62c-4,0-5.08-2.27-5.08-5.58V13.35Z"
         id="path22"
         style="fill:#ffffff" />
      <path
         class="cls-1"
         d="M181.88,3.57a2.58,2.58,0,0,1,2.71,2.16,2.5,2.5,0,0,1-2.71,2.18,2.47,2.47,0,0,1-2.72-2.18A2.49,2.49,0,0,1,181.88,3.57Zm2.36,6.09V24.42h-4.73V9.66Z"
         id="path24"
         style="fill:#ffffff" />
      <path
         class="cls-1"
         d="M192.15,24.42h-4.72V3.75h4.72Z"
         id="path26"
         style="fill:#ffffff" />
      <path
         class="cls-1"
         d="M195.67,20.17a7.6,7.6,0,0,0,4.54,1.21c1,0,1.92-.48,1.92-1.15,0-2.1-8-1.69-8-6.44,0-2.81,2.51-4.49,6.41-4.49a10.2,10.2,0,0,1,5.67,1.42l-1.6,3a7.29,7.29,0,0,0-3.89-1.06c-.77,0-1.95.17-1.95,1,0,1.92,8.09,1.74,8.09,6.5,0,2.86-2.69,4.57-6.67,4.57s-5.61-1.24-6.32-1.74Z"
         id="path28"
         style="fill:#ffffff" />
      <path
         class="cls-1"
         d="M211.23,3.57A2.58,2.58,0,0,1,214,5.73a2.51,2.51,0,0,1-2.72,2.18,2.47,2.47,0,0,1-2.72-2.18A2.49,2.49,0,0,1,211.23,3.57Zm2.36,6.09V24.42h-4.72V9.66Z"
         id="path30"
         style="fill:#ffffff" />
      <path
         class="cls-1"
         d="M216.72,9.66h4.73v1.68a5.72,5.72,0,0,1,4.46-2,5.3,5.3,0,0,1,5,3.07A6.07,6.07,0,0,1,236.3,9.3c3.48,0,5.93,2.54,5.93,7.24v7.88h-4.72V17c0-2.19-.95-3.6-2.75-3.6s-2.92,1.68-2.92,3.78v7.29h-4.72V17c0-2.19-1-3.6-2.72-3.6s-3,1.68-3,3.83v7.24h-4.73Z"
         id="path32"
         style="fill:#ffffff" />
      <path
         class="cls-1"
         d="M244,17.1a7.49,7.49,0,0,1,7.26-7.74,6.42,6.42,0,0,1,4.79,1.92V9.66h4.72V24.42h-4.72V22.71a6.15,6.15,0,0,1-4.7,2A7.45,7.45,0,0,1,244,17.1Zm4.58,0a3.74,3.74,0,1,0,7.47,0,3.89,3.89,0,0,0-3.75-4A3.84,3.84,0,0,0,248.62,17.07Z"
         id="path34"
         style="fill:#ffffff" />
      <path
         class="cls-1"
         d="M262.14,13.35V9.66h2V5.88h4.73V9.66h3.39v3.69h-3.39v5.78c0,1.3.32,2,1.41,2a5.84,5.84,0,0,0,1.8-.32l.89,3.33a10.26,10.26,0,0,1-3.75.62c-4,0-5.08-2.27-5.08-5.58V13.35Z"
         id="path36"
         style="fill:#ffffff" />
    </g>
  </g>
</svg>
