<svg width="59" height="15" viewBox="0 0 59 15" fill="none" xmlns="http://www.w3.org/2000/svg">
<path d="M4.47804 2.60458L6.59067 6.08596H2.37445L4.47804 2.60458ZM4.47804 0L0 7.39255H8.96511L4.47804 0ZM23.7174 1.30659C25.0987 1.30659 26.2272 2.38109 26.2272 3.69628C26.2272 5.01146 25.0987 6.08596 23.7174 6.08596C22.336 6.08596 21.2075 5.01146 21.2075 3.69628C21.1985 2.38109 22.327 1.30659 23.7174 1.30659ZM23.7174 0C21.5777 0 19.8352 1.65043 19.8352 3.69628C19.8352 5.73352 21.5777 7.39255 23.7174 7.39255C25.8571 7.39255 27.5995 5.74212 27.5995 3.69628C27.5995 1.65903 25.8571 0 23.7174 0ZM16.6392 6.08596H11.6104V1.30659H16.6392V6.08596ZM18.0115 0H10.2471V7.39255H18.0115V0ZM14.9328 14.9054H16.2239V13.0229C16.2239 12.4642 16.5669 12.0258 17.1357 12.0258C17.6594 12.0172 17.9754 12.3954 17.9754 12.9628V14.914H19.2754V12.8596C19.2754 11.6476 18.5351 10.9771 17.4607 10.9771C16.91 10.9771 16.4947 11.192 16.2148 11.5014V9.53295H14.9238V14.9054H14.9328ZM20.5123 9.47278C20.9096 9.47278 21.2526 9.73925 21.2526 10.0315C21.2526 10.3496 20.9096 10.5989 20.5123 10.5989C20.088 10.5989 19.772 10.341 19.772 10.0315C19.772 9.73066 20.097 9.47278 20.5123 9.47278ZM21.1624 14.9054H19.8623V11.0544H21.1533V14.9054H21.1624ZM23.3291 9.51576H22.0381V14.9054H23.3291V9.51576ZM25.3966 9.51576H24.1056V14.9054H25.3966V9.51576ZM26.9224 9.47278C27.3197 9.47278 27.6627 9.73925 27.6627 10.0315C27.6627 10.3496 27.3197 10.5989 26.9224 10.5989C26.4981 10.5989 26.1821 10.341 26.1821 10.0315C26.1731 9.73066 26.4981 9.47278 26.9224 9.47278ZM27.5634 14.9054H26.2724V11.0544H27.5634V14.9054ZM30.3712 12.0172V13.5301C30.3712 14.3897 30.6601 14.9828 31.7616 14.9828C32.0776 14.9828 32.4748 14.9484 32.7908 14.8195L32.5471 13.9513C32.3845 14.0029 32.204 14.0373 32.0505 14.0373C31.7526 14.0373 31.6623 13.8567 31.6623 13.5215V12.0086H32.5922V11.0458H31.6623V10.0573H30.3712V11.0458H29.8205V12.0086H30.3712V12.0172ZM34.0458 9.47278C34.443 9.47278 34.7861 9.73925 34.7861 10.0315C34.7861 10.3496 34.443 10.5989 34.0458 10.5989C33.6214 10.5989 33.3054 10.341 33.3054 10.0315C33.2964 9.73066 33.6214 9.47278 34.0458 9.47278ZM34.6868 14.9054H33.3957V11.0544H34.6868V14.9054ZM36.8626 9.51576H35.5715V14.9054H36.8626V9.51576ZM37.3321 14.5444C37.5217 14.6734 37.9911 15 39.0655 15C40.1579 15 40.8892 14.553 40.8892 13.8052C40.8892 12.5673 38.6773 12.6103 38.6773 12.1117C38.6773 11.8883 39.0023 11.8453 39.2099 11.8453C39.6343 11.8453 40.0225 11.957 40.2753 12.1203L40.7086 11.3381C40.5371 11.2436 40.0767 10.9685 39.1558 10.9685C38.0904 10.9685 37.4043 11.4069 37.4043 12.1375C37.4043 13.3754 39.5982 13.2722 39.5982 13.8138C39.5982 13.9943 39.3544 14.1146 39.0745 14.1146C38.5148 14.1146 38.0543 13.9771 37.8286 13.7966L37.3321 14.5444ZM42.0809 9.47278C42.4782 9.47278 42.8213 9.73925 42.8213 10.0315C42.8213 10.3496 42.4782 10.5989 42.0809 10.5989C41.6566 10.5989 41.3406 10.341 41.3406 10.0315C41.3406 9.73066 41.6656 9.47278 42.0809 9.47278ZM42.731 14.9054H41.4399V11.0544H42.731V14.9054ZM43.5887 14.9054H44.8797V13.0229C44.8797 12.4642 45.1686 12.0258 45.6923 12.0258C46.1798 12.0258 46.4326 12.3954 46.4326 12.9628V14.914H47.7236V13.0143C47.7236 12.4642 48.0306 12.0258 48.5272 12.0258C49.0237 12.0258 49.2765 12.3954 49.2765 12.9628V14.914H50.5676V12.8596C50.5676 11.639 49.8995 10.9771 48.9425 10.9771C48.2473 10.9771 47.7688 11.3209 47.4799 11.7765C47.209 11.2521 46.7215 10.9771 46.0985 10.9771C45.5568 10.9771 45.1596 11.2006 44.8797 11.51V11.0716H43.5887V14.9054ZM51.0731 12.9971C51.0731 11.8539 51.985 10.9771 53.0594 10.9771C53.6191 10.9771 54.0615 11.1662 54.3685 11.4756V11.0544H55.6595V14.9054H54.3685V14.4585C54.0615 14.7851 53.6282 14.9828 53.0865 14.9828C52.0121 14.9828 51.0731 14.149 51.0731 12.9971ZM52.319 12.9885C52.319 13.5387 52.7434 14.0201 53.3392 14.0201C53.9441 14.0201 54.3685 13.5387 54.3685 12.9885C54.3594 12.4384 53.9441 11.9484 53.3392 11.9484C52.7434 11.9484 52.319 12.447 52.319 12.9885ZM56.5804 12.0172V13.5301C56.5804 14.3897 56.8693 14.9828 57.9708 14.9828C58.2868 14.9828 58.684 14.9484 59 14.8195L58.7562 13.9513C58.5937 14.0029 58.4132 14.0373 58.2597 14.0373C57.9617 14.0373 57.8715 13.8567 57.8715 13.5215V12.0086H58.8014V11.0458H57.8715V10.0573H56.5804V11.0458H56.0297V12.0086H56.5804V12.0172Z" fill="#10181F"/>
</svg>
