<svg width="134" height="33" viewBox="0 0 134 33" fill="none" xmlns="http://www.w3.org/2000/svg">
<path d="M10.1702 5.73009L14.9684 13.3891H5.39256L10.1702 5.73009ZM10.1702 0L-0.000244141 16.2636H20.3612L10.1702 0ZM53.8663 2.8745C57.0036 2.8745 59.5667 5.2384 59.5667 8.13181C59.5667 11.0252 57.0036 13.3891 53.8663 13.3891C50.7291 13.3891 48.1659 11.0252 48.1659 8.13181C48.1454 5.2384 50.7086 2.8745 53.8663 2.8745ZM53.8663 0C49.0066 0 45.0492 3.63095 45.0492 8.13181C45.0492 12.6138 49.0066 16.2636 53.8663 16.2636C58.726 16.2636 62.6835 12.6327 62.6835 8.13181C62.6835 3.64986 58.726 0 53.8663 0ZM37.7904 13.3891H26.3692V2.8745H37.7904V13.3891ZM40.9072 0H23.2729V16.2636H40.9072V0ZM33.915 32.792H36.8472V28.6504C36.8472 27.4212 37.6264 26.4567 38.9182 26.4567C40.1075 26.4378 40.8252 27.2699 40.8252 28.5181V32.8109H43.7779V28.2911C43.7779 25.6246 42.0965 24.1496 39.6564 24.1496C38.4056 24.1496 37.4623 24.6224 36.8267 25.3032V20.9725H33.8945V32.792H33.915ZM46.5871 20.8401C47.4893 20.8401 48.2685 21.4264 48.2685 22.0693C48.2685 22.7691 47.4893 23.3175 46.5871 23.3175C45.6233 23.3175 44.9056 22.7501 44.9056 22.0693C44.9056 21.4074 45.6438 20.8401 46.5871 20.8401ZM48.0634 32.792H45.1107V24.3198H48.0429V32.792H48.0634ZM52.9846 20.9347H50.0524V32.792H52.9846V20.9347ZM57.6802 20.9347H54.748V32.792H57.6802V20.9347ZM61.1456 20.8401C62.0478 20.8401 62.827 21.4264 62.827 22.0693C62.827 22.7691 62.0478 23.3175 61.1456 23.3175C60.1819 23.3175 59.4642 22.7501 59.4642 22.0693C59.4437 21.4074 60.1819 20.8401 61.1456 20.8401ZM62.6014 32.792H59.6692V24.3198H62.6014V32.792ZM68.9785 26.4378V29.7662C68.9785 31.6573 69.6346 32.9622 72.1363 32.9622C72.8539 32.9622 73.7561 32.8865 74.4738 32.6029L73.9202 30.6928C73.5511 30.8063 73.141 30.882 72.7924 30.882C72.1157 30.882 71.9107 30.4848 71.9107 29.7473V26.4189H74.0227V24.3009H71.9107V22.1261H68.9785V24.3009H67.7277V26.4189H68.9785V26.4378ZM77.324 20.8401C78.2262 20.8401 79.0054 21.4264 79.0054 22.0693C79.0054 22.7691 78.2262 23.3175 77.324 23.3175C76.3603 23.3175 75.6426 22.7501 75.6426 22.0693C75.6221 21.4074 76.3603 20.8401 77.324 20.8401ZM78.7799 32.792H75.8477V24.3198H78.7799V32.792ZM83.7216 20.9347H80.7894V32.792H83.7216V20.9347ZM84.7878 31.9977C85.2184 32.2814 86.2847 33 88.7248 33C91.2059 33 92.8668 32.0166 92.8668 30.3713C92.8668 27.6481 87.8431 27.7427 87.8431 26.6458C87.8431 26.1542 88.5812 26.0596 89.0529 26.0596C90.0166 26.0596 90.8983 26.3054 91.4724 26.6648L92.4567 24.9438C92.0671 24.7358 91.0213 24.1307 88.9298 24.1307C86.5102 24.1307 84.9519 25.0951 84.9519 26.7026C84.9519 29.4258 89.9346 29.1989 89.9346 30.3903C89.9346 30.7874 89.3809 31.0521 88.7453 31.0521C87.474 31.0521 86.4282 30.7496 85.9156 30.3524L84.7878 31.9977ZM95.5734 20.8401C96.4757 20.8401 97.2548 21.4264 97.2548 22.0693C97.2548 22.7691 96.4757 23.3175 95.5734 23.3175C94.6097 23.3175 93.892 22.7501 93.892 22.0693C93.892 21.4074 94.6302 20.8401 95.5734 20.8401ZM97.0498 32.792H94.1176V24.3198H97.0498V32.792ZM98.9978 32.792H101.93V28.6504C101.93 27.4212 102.586 26.4567 103.775 26.4567C104.883 26.4567 105.457 27.2699 105.457 28.5181V32.8109H108.389V28.6315C108.389 27.4212 109.086 26.4567 110.214 26.4567C111.342 26.4567 111.916 27.2699 111.916 28.5181V32.8109H114.848V28.2911C114.848 25.6057 113.331 24.1496 111.157 24.1496C109.578 24.1496 108.492 24.906 107.835 25.9083C107.22 24.7547 106.113 24.1496 104.698 24.1496C103.468 24.1496 102.566 24.6413 101.93 25.3221V24.3576H98.9978V32.792ZM115.996 28.5937C115.996 26.0785 118.067 24.1496 120.507 24.1496C121.779 24.1496 122.784 24.5656 123.481 25.2464V24.3198H126.413V32.792H123.481V31.8086C122.784 32.5272 121.799 32.9622 120.569 32.9622C118.129 32.9622 115.996 31.1278 115.996 28.5937ZM118.826 28.5748C118.826 29.7851 119.79 30.8441 121.143 30.8441C122.517 30.8441 123.481 29.7851 123.481 28.5748C123.46 27.3645 122.517 26.2865 121.143 26.2865C119.79 26.2865 118.826 27.3834 118.826 28.5748ZM128.504 26.4378V29.7662C128.504 31.6573 129.161 32.9622 131.662 32.9622C132.38 32.9622 133.282 32.8865 134 32.6029L133.446 30.6928C133.077 30.8063 132.667 30.882 132.318 30.882C131.642 30.882 131.437 30.4848 131.437 29.7473V26.4189H133.549V24.3009H131.437V22.1261H128.504V24.3009H127.254V26.4189H128.504V26.4378Z" fill="white"/>
</svg>
