<svg width="98" height="118" viewBox="0 0 98 118" fill="none" xmlns="http://www.w3.org/2000/svg">
<g filter="url(#filter0_d_393_1046)">
<path fill-rule="evenodd" clip-rule="evenodd" d="M4 50.9644C4 91.5346 4.04363 101.962 4.21388 102.092C4.34049 102.189 7.5485 102.272 12.0718 102.297L19.7158 102.338L19.9156 101.965C20.0345 101.743 20.0825 101.181 20.0342 100.577C19.9173 99.1148 20.0691 98.9933 22.5407 98.5724C24.8205 98.1842 25.614 97.7776 26.3956 96.5965L26.8422 95.9217L26.866 57.4415C26.8872 23.3198 26.9194 18.9003 27.151 18.4202C27.2948 18.1227 27.6192 17.3786 27.8721 16.767C28.125 16.1553 28.5164 15.274 28.742 14.8086C28.9675 14.3431 29.1521 13.8163 29.1521 13.6379C29.1521 13.4596 29.3061 13.1178 29.4943 12.8786C29.6825 12.6392 29.8368 12.3576 29.837 12.2527C29.8379 12.025 30.7117 9.88036 31.1001 9.15339C31.251 8.87109 31.3747 8.55423 31.3754 8.44935C31.3759 8.34447 31.5342 8.05789 31.7272 7.81272C31.92 7.56754 32.2581 6.84503 32.4783 6.20703C32.6985 5.5692 33.0022 4.81622 33.1533 4.53392C33.3042 4.25162 33.4748 3.77325 33.5321 3.47076C33.6796 2.69418 34.0769 2.3922 34.3892 2.81942C34.5203 2.99855 34.6279 3.26511 34.6286 3.41173C34.6291 3.55853 34.7826 3.90944 34.9696 4.19174C35.1566 4.47404 35.3101 4.86122 35.3106 5.05216C35.312 5.46808 36.1167 7.3749 36.6443 8.21239C36.8517 8.54174 37.0218 8.89761 37.0221 9.00334C37.0228 9.19616 37.4584 10.2633 38.0659 11.56C38.245 11.9425 38.3916 12.3504 38.3916 12.4664C38.3916 12.5824 38.7381 13.4137 39.1616 14.3139C39.5851 15.214 39.9316 16.0525 39.9316 16.1775C39.9316 16.3024 40.0164 16.4569 40.1201 16.5211C40.3963 16.6917 40.8109 17.7434 41.0264 18.8201C41.1592 19.4834 41.1895 24.4062 41.1293 35.5015C41.0822 44.1587 41.0689 52.3006 41.0997 53.5944C41.1645 56.3166 41.265 56.4422 42.4206 55.2476C43.2754 54.364 44.8396 53.3158 47.6977 51.7115C48.1578 51.4532 48.6968 51.1468 48.8955 51.0306C49.0941 50.9142 49.4047 50.8181 49.5853 50.8167C49.7662 50.8154 50.0357 50.7057 50.1842 50.5731C50.3329 50.4403 50.7624 50.2855 51.1388 50.2289C51.5152 50.1722 52.2246 49.965 52.7153 49.7683C53.5241 49.444 53.8756 49.4167 56.4796 49.4752C58.7 49.5252 59.4876 49.6042 59.9506 49.824C60.2799 49.9803 60.8959 50.2004 61.3194 50.3132C64.7171 51.2176 67.6473 53.6541 69.3041 56.9527C69.7115 57.7641 70.0449 58.527 70.0453 58.6484C70.0455 58.7697 70.1948 59.1614 70.3771 59.5188C70.8758 60.4962 71.3744 62.6525 71.5857 64.7461C71.6896 65.7747 71.8147 66.681 71.8634 66.76C71.9124 66.8393 71.9455 72.6959 71.9372 79.775C71.923 91.7714 71.9447 92.7837 72.2556 94.6729C72.6248 96.9159 72.7121 97.072 74.0937 97.9582C74.8346 98.4335 75.191 98.5408 76.3114 98.6262C78.1963 98.7695 78.3643 98.9156 78.4659 100.499C78.5114 101.207 78.6468 101.905 78.7667 102.05C78.9566 102.279 79.9085 102.312 86.1074 102.31C90.0249 102.309 93.4034 102.262 93.615 102.205L94 102.102V51.0508V0H49H4V50.9644ZM29.7922 19.9031L29.3203 20.2896L29.3644 58.7263C29.3937 84.0661 29.4671 97.22 29.5798 97.3303C29.9058 97.6494 30.5988 97.7141 30.9487 97.458C31.2892 97.2088 31.2909 97.01 31.2909 58.6883V20.1693L30.8631 19.8406C30.3358 19.4355 30.3656 19.4338 29.7922 19.9031ZM48.1445 54.5499C47.0619 54.8273 45.1635 55.843 44.7127 56.3864C44.5895 56.5348 44.1824 56.8124 43.8082 57.0034C43.434 57.1943 42.6889 57.8046 42.1525 58.3596C41.6161 58.9146 41.1139 59.3687 41.0364 59.3687C40.7628 59.3687 37.7072 62.6869 37.7072 62.9839C37.7072 63.0658 37.6046 63.1327 37.4791 63.1327C37.2389 63.1327 36.1673 64.3663 36.1673 64.6428C36.1673 64.7316 35.9748 64.9304 35.7395 65.0845C35.2694 65.3927 35.1645 65.8702 35.5671 65.8702C35.7074 65.8702 35.9183 65.7162 36.0359 65.528C36.1534 65.3398 36.335 65.1858 36.4395 65.1858C36.5439 65.1858 36.9482 64.9549 37.3378 64.6726C37.7276 64.3903 38.1146 64.1593 38.1981 64.1593C38.2814 64.1593 38.4394 64.0513 38.5489 63.9194C38.6582 63.7875 38.9356 63.6325 39.1652 63.5748C39.3946 63.5173 39.9576 63.2489 40.4161 62.9786L41.2499 62.487L41.3548 64.478C41.4124 65.573 41.3871 67.3929 41.2985 68.5221C41.0952 71.1131 41.0915 90.3601 41.2937 94.0108L41.445 96.7445L42.2834 97.5442C43.0567 98.2819 43.2092 98.3533 44.2519 98.4648C45.8587 98.6369 46.1768 99.0041 46.1768 100.687C46.1768 101.377 46.241 102.006 46.3193 102.084C46.3977 102.163 47.4743 102.249 48.712 102.277C50.6576 102.32 50.9908 102.288 51.1721 102.039C51.2882 101.881 51.3253 101.628 51.2555 101.476C51.1857 101.325 51.1309 100.819 51.1336 100.353C51.1383 99.5822 51.1918 99.4691 51.7202 99.1124C52.04 98.8965 52.5044 98.7197 52.7523 98.7197C53.4138 98.7197 54.8871 98.3084 55.242 98.0248C56.2503 97.2186 56.6455 96.6649 56.8432 95.7823C56.9978 95.0906 57.047 91.0867 57.0357 80.0627C57.023 67.6954 56.9792 65.0892 56.7686 64.1593C56.63 63.5476 56.4466 62.4934 56.3608 61.8165C56.2751 61.1395 56.0854 60.3542 55.9391 60.0712C55.7928 59.7882 55.673 59.4301 55.673 59.2753C55.673 58.9679 54.7612 57.2219 54.3743 56.7888C54.2417 56.6403 54.1331 56.403 54.1331 56.2615C54.1331 55.8732 52.9747 55.0363 51.8507 54.6126C50.6825 54.1722 49.6854 54.1554 48.1445 54.5499Z" fill="#CD3202"/>
</g>
<path fill-rule="evenodd" clip-rule="evenodd" d="M27.2698 102.673C26.2963 103.645 27.5207 105.238 28.6164 104.425C29.2065 103.987 29.3025 103.165 28.8199 102.683C28.3731 102.237 27.7108 102.233 27.2698 102.673ZM30.5107 102.683C30.028 103.165 30.124 103.987 30.7141 104.425C31.48 104.994 32.4029 104.455 32.4029 103.439C32.4029 102.436 31.2283 101.967 30.5107 102.683ZM66.9556 102.683C66.4729 103.165 66.5689 103.987 67.159 104.425C67.9249 104.994 68.8478 104.455 68.8478 103.439C68.8478 102.436 67.6732 101.967 66.9556 102.683ZM70.2334 102.741C69.7324 103.273 69.8102 103.98 70.4195 104.433C70.8281 104.736 70.9392 104.749 71.4177 104.551C72.0517 104.289 72.329 103.705 72.1027 103.111C71.7872 102.282 70.841 102.095 70.2334 102.741ZM28.1479 105.762C24.744 106.429 22.6756 109.901 23.5749 113.436C24.197 115.883 25.9231 117.434 28.5278 117.887C31.475 118.399 34.2017 117.012 35.4295 114.376C35.8465 113.481 35.9069 113.145 35.9069 111.728C35.9069 110.328 35.8443 109.971 35.452 109.132C34.2156 106.488 31.3008 105.143 28.1479 105.762ZM4.61157 105.898C4.56058 105.981 4.76265 106.097 5.06088 106.157C6.24662 106.393 6.22421 106.286 6.22421 111.716C6.22421 117.225 6.19615 117.366 5.10229 117.366C4.77822 117.366 4.51318 117.443 4.51318 117.537C4.51318 117.645 5.68575 117.708 7.68868 117.708C9.7621 117.708 10.8276 117.648 10.7584 117.537C10.7003 117.443 10.4381 117.366 10.176 117.366C9.26505 117.366 9.13296 116.991 9.13296 114.405V112.07H11.1862H13.2394V114.435C13.2394 116.51 13.2009 116.835 12.9265 117.083C12.7543 117.239 12.4125 117.366 12.1666 117.366C11.9209 117.366 11.6721 117.443 11.6139 117.537C11.5448 117.648 12.6103 117.708 14.6837 117.708C16.6866 117.708 17.8592 117.645 17.8592 117.537C17.8592 117.443 17.6282 117.366 17.3459 117.366C17.0607 117.366 16.6805 117.214 16.4904 117.024C16.1639 116.698 16.1482 116.455 16.1482 111.74C16.1482 106.268 16.1266 106.376 17.2643 106.163C18.5693 105.919 17.5125 105.748 14.6938 105.748C11.875 105.748 10.8183 105.919 12.1233 106.163C13.1662 106.359 13.2394 106.545 13.2394 109.006V111.215H11.1862H9.13296V109.068C9.13296 107.888 9.20892 106.78 9.30183 106.607C9.40124 106.421 9.75337 106.244 10.158 106.176C10.5362 106.112 10.8021 105.99 10.749 105.904C10.6253 105.704 4.7351 105.699 4.61157 105.898ZM40.958 105.923C40.958 106.019 41.1475 106.183 41.3788 106.289C41.8454 106.501 41.8871 106.593 44.7336 113.652C45.7096 116.072 46.5801 118.029 46.6683 118C46.7562 117.97 47.5286 116.28 48.3846 114.244C49.2406 112.207 49.9844 110.539 50.0374 110.537C50.0905 110.534 50.6236 111.82 51.222 113.394C52.7053 117.294 53.0848 118.14 53.2677 117.951C53.352 117.864 54.2804 115.539 55.3308 112.783C57.7588 106.414 57.6517 106.659 58.1547 106.33C58.3895 106.176 58.5816 105.983 58.5816 105.899C58.5816 105.816 57.8823 105.748 57.0275 105.748C55.8602 105.748 55.491 105.801 55.5445 105.962C55.5836 106.079 55.7632 106.203 55.9437 106.237C56.4201 106.325 56.6995 106.598 56.6995 106.973C56.6995 107.343 54.4428 113.437 54.3061 113.436C54.1502 113.435 51.7192 106.909 51.7722 106.634C51.8005 106.488 52.0737 106.303 52.3795 106.224C53.6128 105.905 52.8663 105.748 50.112 105.748C48.3805 105.748 47.2888 105.813 47.2888 105.916C47.2888 106.008 47.4757 106.13 47.7039 106.187C48.2995 106.337 48.581 106.711 49.1722 108.143L49.6956 109.41L48.8004 111.594C48.3081 112.796 47.8487 113.721 47.7796 113.65C47.5202 113.385 45.0438 106.921 45.0967 106.647C45.127 106.49 45.3383 106.317 45.566 106.264C45.7938 106.21 46.0116 106.072 46.0499 105.957C46.1028 105.799 45.4964 105.748 43.5388 105.748C41.8962 105.748 40.958 105.812 40.958 105.923ZM63.3725 105.923C63.3725 106.02 63.6018 106.144 63.882 106.2C64.801 106.384 64.82 106.476 64.9124 111.211L64.998 115.598L65.4694 116.309C65.7725 116.766 66.2605 117.184 66.8382 117.481C67.6196 117.884 67.9346 117.943 69.2755 117.941C70.9641 117.939 71.639 117.733 72.5953 116.928C73.7235 115.978 73.857 115.378 73.9434 110.874C74.0271 106.502 74.0541 106.384 75.0253 106.171C76.0885 105.938 75.4321 105.748 73.5632 105.748C71.6176 105.748 70.8452 105.968 72.0181 106.187C73.1122 106.392 73.1551 106.587 73.094 111.075C73.0442 114.731 73.0109 115.109 72.6883 115.657C72.1454 116.58 71.3585 117.024 70.2683 117.024C69.1616 117.024 68.4329 116.685 68.0807 116.005C67.733 115.333 67.692 106.751 68.035 106.468C68.1528 106.371 68.5371 106.238 68.889 106.172C70.2433 105.919 69.2213 105.748 66.3567 105.748C64.4328 105.748 63.3725 105.81 63.3725 105.923ZM80.748 105.905C80.6946 105.992 80.9018 106.115 81.2084 106.18C82.3955 106.432 82.3649 106.285 82.3649 111.754C82.3649 116.455 82.3491 116.698 82.0227 117.024C81.8326 117.214 81.4524 117.366 81.1672 117.366C80.8848 117.366 80.6539 117.443 80.6539 117.537C80.6539 117.644 81.7946 117.708 83.7337 117.708C85.6728 117.708 86.8136 117.644 86.8136 117.537C86.8136 117.443 86.5973 117.366 86.3329 117.366C86.0686 117.366 85.7029 117.257 85.5202 117.124C85.2202 116.905 85.1881 116.661 85.1881 114.604C85.1881 112.439 85.2055 112.323 85.538 112.276C85.8164 112.236 86.2848 112.786 87.8297 114.967L89.7716 117.708H91.6291C93.4727 117.708 93.8875 117.58 93.0513 117.271C92.7751 117.169 91.9661 116.205 90.8386 114.635L89.0612 112.161L89.9016 111.762C91.1421 111.174 91.5189 110.549 91.5189 109.08C91.5189 106.388 90.026 105.752 83.701 105.75C82.1303 105.749 80.8015 105.819 80.748 105.905ZM30.8288 106.501C31.498 106.848 31.9897 107.435 32.3465 108.311C32.6048 108.945 32.6596 109.558 32.6596 111.813C32.6596 114.406 32.6365 114.596 32.2109 115.502C31.447 117.129 30.085 117.719 28.6036 117.064C27.1045 116.402 26.5141 114.691 26.6133 111.299C26.6751 109.192 26.7141 108.971 27.1916 108.039C27.823 106.806 28.5659 106.261 29.6136 106.261C30.0278 106.261 30.5745 106.369 30.8288 106.501ZM87.3209 106.655C87.6639 106.773 88.0847 107.111 88.3194 107.457C88.674 107.98 88.7171 108.212 88.6633 109.311C88.6067 110.466 88.5586 110.606 88.0683 111.043C87.6639 111.404 87.2844 111.548 86.4991 111.639C85.9291 111.705 85.3819 111.709 85.2827 111.648C85.0842 111.526 85.0221 106.74 85.2167 106.546C85.3973 106.365 86.6709 106.431 87.3209 106.655Z" fill="#10181F"/>
<defs>
<filter id="filter0_d_393_1046" x="0" y="0" width="98" height="110.338" filterUnits="userSpaceOnUse" color-interpolation-filters="sRGB">
<feFlood flood-opacity="0" result="BackgroundImageFix"/>
<feColorMatrix in="SourceAlpha" type="matrix" values="0 0 0 0 0 0 0 0 0 0 0 0 0 0 0 0 0 0 127 0" result="hardAlpha"/>
<feOffset dy="4"/>
<feGaussianBlur stdDeviation="2"/>
<feComposite in2="hardAlpha" operator="out"/>
<feColorMatrix type="matrix" values="0 0 0 0 0 0 0 0 0 0 0 0 0 0 0 0 0 0 0.25 0"/>
<feBlend mode="normal" in2="BackgroundImageFix" result="effect1_dropShadow_393_1046"/>
<feBlend mode="normal" in="SourceGraphic" in2="effect1_dropShadow_393_1046" result="shape"/>
</filter>
</defs>
</svg>
